<?xml version="1.0" encoding="UTF-8"?>
<!DOCTYPE svg PUBLIC "-//W3C//DTD SVG 1.1//EN" "http://www.w3.org/Graphics/SVG/1.1/DTD/svg11.dtd">
<!-- Creator: CorelDRAW 2018 (评估版) -->
<svg xmlns="http://www.w3.org/2000/svg" xml:space="preserve" width="86.6986mm" height="86.6986mm" version="1.1" style="shape-rendering:geometricPrecision; text-rendering:geometricPrecision; image-rendering:optimizeQuality; fill-rule:evenodd; clip-rule:evenodd"
viewBox="0 0 8669.86 8669.86"
 xmlns:xlink="http://www.w3.org/1999/xlink">
 <defs>
  <style type="text/css">
   <![CDATA[
    .str0 {stroke:#332C2B;stroke-width:20;stroke-miterlimit:22.9256}
    .fil124 {fill:#FEFEFE}
    .fil118 {fill:#F6CAA9}
    .fil117 {fill:#F7CAA8}
    .fil116 {fill:#F6CAA8}
    .fil115 {fill:#F6CAA7}
    .fil114 {fill:#F6C9A7}
    .fil113 {fill:#F6C9A6}
    .fil112 {fill:#F6C8A5}
    .fil111 {fill:#F6C7A4}
    .fil110 {fill:#F6C7A3}
    .fil109 {fill:#F6C6A3}
    .fil108 {fill:#F6C6A2}
    .fil107 {fill:#F5C6A2}
    .fil106 {fill:#F5C5A2}
    .fil105 {fill:#F5C5A1}
    .fil104 {fill:#F5C5A1}
    .fil103 {fill:#F5C5A0}
    .fil102 {fill:#F5C49F}
    .fil101 {fill:#F5C49E}
    .fil100 {fill:#F5C39E}
    .fil99 {fill:#F5C39D}
    .fil98 {fill:#F5C29D}
    .fil97 {fill:#F5C29C}
    .fil96 {fill:#F5C19B}
    .fil95 {fill:#F5C19B}
    .fil94 {fill:#F5C19A}
    .fil93 {fill:#F5C19A}
    .fil92 {fill:#F5C099}
    .fil91 {fill:#F5C098}
    .fil90 {fill:#F4BF98}
    .fil89 {fill:#F4BF97}
    .fil88 {fill:#F4BE97}
    .fil87 {fill:#F4BE96}
    .fil1 {fill:#F4BD95}
    .fil2 {fill:#F4BD95}
    .fil3 {fill:#F4BD94}
    .fil4 {fill:#F4BD94}
    .fil5 {fill:#F4BC93}
    .fil6 {fill:#F4BC93}
    .fil7 {fill:#F4BB92}
    .fil8 {fill:#F4BB91}
    .fil9 {fill:#F4BA90}
    .fil10 {fill:#F4B98F}
    .fil11 {fill:#F4B98F}
    .fil12 {fill:#F4B98E}
    .fil13 {fill:#F3B88E}
    .fil14 {fill:#F3B88D}
    .fil15 {fill:#F3B78C}
    .fil16 {fill:#F3B78B}
    .fil17 {fill:#F3B68B}
    .fil18 {fill:#F3B68A}
    .fil19 {fill:#F3B589}
    .fil20 {fill:#F2B488}
    .fil21 {fill:#F2B487}
    .fil22 {fill:#F2B386}
    .fil23 {fill:#F2B385}
    .fil24 {fill:#F2B285}
    .fil25 {fill:#F2B284}
    .fil26 {fill:#F2B183}
    .fil27 {fill:#F2B082}
    .fil28 {fill:#F2B081}
    .fil29 {fill:#F2B081}
    .fil30 {fill:#F2B080}
    .fil31 {fill:#F2AF7F}
    .fil32 {fill:#F2AE7F}
    .fil33 {fill:#F2AE7E}
    .fil34 {fill:#F2AD7D}
    .fil35 {fill:#F2AD7D}
    .fil36 {fill:#F1AC7D}
    .fil37 {fill:#F1AC7C}
    .fil38 {fill:#F1AC7C}
    .fil39 {fill:#F1AC7B}
    .fil40 {fill:#F1AB7B}
    .fil41 {fill:#F1AA7A}
    .fil42 {fill:#F0AA79}
    .fil43 {fill:#F0AA78}
    .fil44 {fill:#F0A978}
    .fil45 {fill:#F0A977}
    .fil46 {fill:#F0A877}
    .fil47 {fill:#F0A876}
    .fil48 {fill:#F0A776}
    .fil49 {fill:#F0A775}
    .fil50 {fill:#F0A674}
    .fil51 {fill:#F0A674}
    .fil52 {fill:#F0A673}
    .fil53 {fill:#F0A673}
    .fil54 {fill:#F0A572}
    .fil55 {fill:#F0A572}
    .fil56 {fill:#F0A471}
    .fil57 {fill:#F0A470}
    .fil58 {fill:#F0A370}
    .fil59 {fill:#F0A36F}
    .fil60 {fill:#F0A36F}
    .fil61 {fill:#F0A26E}
    .fil62 {fill:#EFA26E}
    .fil63 {fill:#EFA26D}
    .fil64 {fill:#EFA16C}
    .fil65 {fill:#EFA06B}
    .fil66 {fill:#EFA06B}
    .fil67 {fill:#EF9F6A}
    .fil68 {fill:#EF9F6A}
    .fil69 {fill:#EF9E69}
    .fil70 {fill:#EF9E69}
    .fil71 {fill:#EF9E68}
    .fil72 {fill:#EE9D68}
    .fil73 {fill:#EE9D67}
    .fil74 {fill:#EE9D67}
    .fil75 {fill:#EE9C66}
    .fil76 {fill:#EE9C65}
    .fil77 {fill:#EE9B65}
    .fil78 {fill:#EE9B64}
    .fil79 {fill:#EE9A63}
    .fil80 {fill:#EE9963}
    .fil81 {fill:#EE9962}
    .fil82 {fill:#EE9962}
    .fil83 {fill:#EE9961}
    .fil84 {fill:#ED9860}
    .fil85 {fill:#ED975F}
    .fil120 {fill:#7789A4}
    .fil122 {fill:#664840}
    .fil123 {fill:#9A8276}
    .fil86 {fill:#EC9760}
    .fil0 {fill:url(#id1)}
    .fil119 {fill:url(#id2)}
    .fil121 {fill:url(#id3)}
   ]]>
  </style>
    <clipPath id="id0">
     <path d="M3782.64 5407.49l82.75 -74.36c186.2,-400.57 486.04,-786.28 936.32,-1152.29 299.87,-243.73 1277.19,1496.23 1223.45,1543.66 -795.9,190.82 -1538.45,54.75 -2242.52,-317.01z"/>
    </clipPath>
  <linearGradient id="id1" gradientUnits="userSpaceOnUse" x1="1829.61" y1="4112.21" x2="6554.01" y2="4112.21">
   <stop offset="0" style="stop-opacity:1; stop-color:#28AFEA"/>
   <stop offset="0.192157" style="stop-opacity:1; stop-color:#46A5E8"/>
   <stop offset="0.368627" style="stop-opacity:1; stop-color:#28AFEA"/>
   <stop offset="1" style="stop-opacity:1; stop-color:#649AE6"/>
  </linearGradient>
  <linearGradient id="id2" gradientUnits="userSpaceOnUse" x1="3522.4" y1="6086.84" x2="3991.65" y2="3325.61">
   <stop offset="0" style="stop-opacity:1; stop-color:#664840"/>
   <stop offset="0.870588" style="stop-opacity:1; stop-color:#B2A39F"/>
   <stop offset="1" style="stop-opacity:1; stop-color:#FEFEFE"/>
  </linearGradient>
  <radialGradient id="id3" gradientUnits="userSpaceOnUse" gradientTransform="matrix(1 -0 -0 1 0 0)" cx="4191.81" cy="4112.21" r="3081.87" fx="4191.81" fy="4112.21">
   <stop offset="0" style="stop-opacity:1; stop-color:#FEFEFE"/>
   <stop offset="0.368627" style="stop-opacity:1; stop-color:#BAC3D1"/>
   <stop offset="1" style="stop-opacity:1; stop-color:#7789A4"/>
  </radialGradient>
 </defs>
 <g id="图层_x0020_1">
  <metadata id="CorelCorpID_0Corel-Layer"/>
  <circle class="fil0 str0" cx="4191.81" cy="4112.21" r="2362.2"/>
  <g>
   <g style="clip-path:url(#id0)">
    <polygon class="fil1" points="4293.36,6519.72 4291.89,6516.51 6086.06,5692.66 6087.53,5695.86 "/>
    <polygon id="1" class="fil1" points="4293.33,6519.66 4289,6510.23 6083.17,5686.37 6087.5,5695.8 "/>
    <polygon id="2" class="fil2" points="4290.45,6513.37 4286.12,6503.95 6080.29,5680.09 6084.61,5689.52 "/>
    <polygon id="3" class="fil3" points="4287.56,6507.09 4283.23,6497.66 6077.4,5673.8 6081.73,5683.23 "/>
    <polygon id="4" class="fil4" points="4284.67,6500.8 4280.35,6491.38 6074.51,5667.52 6078.84,5676.95 "/>
    <polygon id="5" class="fil5" points="4281.79,6494.52 4277.46,6485.09 6071.63,5661.23 6075.96,5670.66 "/>
    <polygon id="6" class="fil6" points="4278.9,6488.23 4274.57,6478.81 6068.74,5654.95 6073.07,5664.38 "/>
    <polygon id="7" class="fil6" points="4276.02,6481.95 4271.69,6472.52 6065.86,5648.67 6070.19,5658.09 "/>
    <polygon id="8" class="fil7" points="4273.13,6475.67 4268.8,6466.24 6062.97,5642.38 6067.3,5651.81 "/>
    <polygon id="9" class="fil7" points="4270.25,6469.38 4265.92,6459.95 6060.09,5636.1 6064.41,5645.52 "/>
    <polygon id="10" class="fil8" points="4267.36,6463.1 4263.03,6453.67 6057.2,5629.81 6061.53,5639.24 "/>
    <polygon id="11" class="fil9" points="4264.47,6456.81 4260.15,6447.39 6054.31,5623.53 6058.64,5632.95 "/>
    <polygon id="12" class="fil9" points="4261.59,6450.53 4257.26,6441.1 6051.43,5617.24 6055.76,5626.67 "/>
    <polygon id="13" class="fil10" points="4258.7,6444.24 4254.37,6434.82 6048.54,5610.96 6052.87,5620.39 "/>
    <polygon id="14" class="fil10" points="4255.82,6437.96 4251.49,6428.53 6045.66,5604.67 6049.99,5614.1 "/>
    <polygon id="15" class="fil11" points="4252.93,6431.67 4248.6,6422.25 6042.77,5598.39 6047.1,5607.82 "/>
    <polygon id="16" class="fil12" points="4250.05,6425.39 4245.72,6415.96 6039.89,5592.11 6044.21,5601.53 "/>
    <polygon id="17" class="fil13" points="4247.16,6419.1 4242.83,6409.68 6037,5585.82 6041.33,5595.25 "/>
    <polygon id="18" class="fil13" points="4244.27,6412.82 4239.95,6403.39 6034.11,5579.54 6038.44,5588.96 "/>
    <polygon id="19" class="fil14" points="4241.39,6406.54 4237.06,6397.11 6031.23,5573.25 6035.56,5582.68 "/>
    <polygon id="20" class="fil14" points="4238.5,6400.25 4234.17,6390.82 6028.34,5566.97 6032.67,5576.39 "/>
    <polygon id="21" class="fil15" points="4235.62,6393.97 4231.29,6384.54 6025.46,5560.68 6029.79,5570.11 "/>
    <polygon id="22" class="fil15" points="4232.73,6387.68 4228.4,6378.26 6022.57,5554.4 6026.9,5563.82 "/>
    <polygon id="23" class="fil16" points="4229.84,6381.4 4225.52,6371.97 6019.68,5548.11 6024.01,5557.54 "/>
    <polygon id="24" class="fil17" points="4226.96,6375.11 4222.63,6365.69 6016.8,5541.83 6021.13,5551.26 "/>
    <polygon id="25" class="fil18" points="4224.07,6368.83 4219.74,6359.4 6013.91,5535.54 6018.24,5544.97 "/>
    <polygon id="26" class="fil18" points="4221.19,6362.54 4216.86,6353.12 6011.03,5529.26 6015.36,5538.69 "/>
    <polygon id="27" class="fil19" points="4218.3,6356.26 4213.97,6346.83 6008.14,5522.98 6012.47,5532.4 "/>
    <polygon id="28" class="fil19" points="4215.42,6349.98 4211.09,6340.55 6005.26,5516.69 6009.58,5526.12 "/>
    <polygon id="29" class="fil20" points="4212.53,6343.69 4208.2,6334.26 6002.37,5510.41 6006.7,5519.83 "/>
    <polygon id="30" class="fil20" points="4209.64,6337.41 4205.32,6327.98 5999.48,5504.12 6003.81,5513.55 "/>
    <polygon id="31" class="fil20" points="4206.76,6331.12 4202.43,6321.69 5996.6,5497.84 6000.93,5507.26 "/>
    <polygon id="32" class="fil21" points="4203.87,6324.84 4199.54,6315.41 5993.71,5491.55 5998.04,5500.98 "/>
    <polygon id="33" class="fil21" points="4200.99,6318.55 4196.66,6309.13 5990.83,5485.27 5995.16,5494.7 "/>
    <polygon id="34" class="fil22" points="4198.1,6312.27 4193.77,6302.84 5987.94,5478.98 5992.27,5488.41 "/>
    <polygon id="35" class="fil22" points="4195.22,6305.98 4190.89,6296.56 5985.06,5472.7 5989.38,5482.13 "/>
    <polygon id="36" class="fil23" points="4192.33,6299.7 4188,6290.27 5982.17,5466.41 5986.5,5475.84 "/>
    <polygon id="37" class="fil24" points="4189.44,6293.41 4185.12,6283.99 5979.28,5460.13 5983.61,5469.56 "/>
    <polygon id="38" class="fil25" points="4186.56,6287.13 4182.23,6277.7 5976.4,5453.85 5980.73,5463.27 "/>
    <polygon id="39" class="fil25" points="4183.67,6280.85 4179.34,6271.42 5973.51,5447.56 5977.84,5456.99 "/>
    <polygon id="40" class="fil26" points="4180.79,6274.56 4176.46,6265.13 5970.63,5441.28 5974.96,5450.7 "/>
    <polygon id="41" class="fil26" points="4177.9,6268.28 4173.57,6258.85 5967.74,5434.99 5972.07,5444.42 "/>
    <polygon id="42" class="fil27" points="4175.02,6261.99 4170.69,6252.56 5964.86,5428.71 5969.18,5438.13 "/>
    <polygon id="43" class="fil27" points="4172.13,6255.71 4167.8,6246.28 5961.97,5422.42 5966.3,5431.85 "/>
    <polygon id="44" class="fil28" points="4169.24,6249.42 4164.92,6240 5959.08,5416.14 5963.41,5425.57 "/>
    <polygon id="45" class="fil29" points="4166.36,6243.14 4162.03,6233.71 5956.2,5409.85 5960.53,5419.28 "/>
    <polygon id="46" class="fil30" points="4163.47,6236.85 4159.14,6227.43 5953.31,5403.57 5957.64,5413 "/>
    <polygon id="47" class="fil30" points="4160.59,6230.57 4156.26,6221.14 5950.43,5397.28 5954.76,5406.71 "/>
    <polygon id="48" class="fil31" points="4157.7,6224.28 4153.37,6214.86 5947.54,5391 5951.87,5400.43 "/>
    <polygon id="49" class="fil31" points="4154.81,6218 4150.49,6208.57 5944.66,5384.72 5948.98,5394.14 "/>
    <polygon id="50" class="fil32" points="4151.93,6211.72 4147.6,6202.29 5941.77,5378.43 5946.1,5387.86 "/>
    <polygon id="51" class="fil33" points="4149.04,6205.43 4144.71,6196 5938.88,5372.15 5943.21,5381.57 "/>
    <polygon id="52" class="fil33" points="4146.16,6199.15 4141.83,6189.72 5936,5365.86 5940.33,5375.29 "/>
    <polygon id="53" class="fil34" points="4143.27,6192.86 4138.94,6183.44 5933.11,5359.58 5937.44,5369 "/>
    <polygon id="54" class="fil34" points="4140.39,6186.58 4136.06,6177.15 5930.23,5353.29 5934.55,5362.72 "/>
    <polygon id="55" class="fil35" points="4137.5,6180.29 4133.17,6170.87 5927.34,5347.01 5931.67,5356.44 "/>
    <polygon id="56" class="fil36" points="4134.61,6174.01 4130.29,6164.58 5924.45,5340.72 5928.78,5350.15 "/>
    <polygon id="57" class="fil37" points="4131.73,6167.72 4127.4,6158.3 5921.57,5334.44 5925.9,5343.87 "/>
    <polygon id="58" class="fil38" points="4128.84,6161.44 4124.51,6152.01 5918.68,5328.16 5923.01,5337.58 "/>
    <polygon id="59" class="fil39" points="4125.96,6155.15 4121.63,6145.73 5915.8,5321.87 5920.13,5331.3 "/>
    <polygon id="60" class="fil40" points="4123.07,6148.87 4118.74,6139.44 5912.91,5315.59 5917.24,5325.01 "/>
    <polygon id="61" class="fil41" points="4120.19,6142.59 4115.86,6133.16 5910.03,5309.3 5914.35,5318.73 "/>
    <polygon id="62" class="fil41" points="4117.3,6136.3 4112.97,6126.87 5907.14,5303.02 5911.47,5312.44 "/>
    <polygon id="63" class="fil42" points="4114.41,6130.02 4110.09,6120.59 5904.25,5296.73 5908.58,5306.16 "/>
    <polygon id="64" class="fil42" points="4111.53,6123.73 4107.2,6114.31 5901.37,5290.45 5905.7,5299.87 "/>
    <polygon id="65" class="fil43" points="4108.64,6117.45 4104.31,6108.02 5898.48,5284.16 5902.81,5293.59 "/>
    <polygon id="66" class="fil44" points="4105.76,6111.16 4101.43,6101.74 5895.6,5277.88 5899.93,5287.31 "/>
    <polygon id="67" class="fil45" points="4102.87,6104.88 4098.54,6095.45 5892.71,5271.59 5897.04,5281.02 "/>
    <polygon id="68" class="fil45" points="4099.99,6098.59 4095.66,6089.17 5889.83,5265.31 5894.15,5274.74 "/>
    <polygon id="69" class="fil46" points="4097.1,6092.31 4092.77,6082.88 5886.94,5259.03 5891.27,5268.45 "/>
    <polygon id="70" class="fil47" points="4094.21,6086.02 4089.89,6076.6 5884.05,5252.74 5888.38,5262.17 "/>
    <polygon id="71" class="fil48" points="4091.33,6079.74 4087,6070.31 5881.17,5246.46 5885.5,5255.88 "/>
    <polygon id="72" class="fil49" points="4088.44,6073.46 4084.11,6064.03 5878.28,5240.17 5882.61,5249.6 "/>
    <polygon id="73" class="fil49" points="4085.56,6067.17 4081.23,6057.74 5875.4,5233.89 5879.73,5243.31 "/>
    <polygon id="74" class="fil50" points="4082.67,6060.89 4078.34,6051.46 5872.51,5227.6 5876.84,5237.03 "/>
    <polygon id="75" class="fil50" points="4079.79,6054.6 4075.46,6045.18 5869.63,5221.32 5873.95,5230.74 "/>
    <polygon id="76" class="fil51" points="4076.9,6048.32 4072.57,6038.89 5866.74,5215.03 5871.07,5224.46 "/>
    <polygon id="77" class="fil52" points="4074.01,6042.03 4069.68,6032.61 5863.85,5208.75 5868.18,5218.18 "/>
    <polygon id="78" class="fil53" points="4071.13,6035.75 4066.8,6026.32 5860.97,5202.46 5865.3,5211.89 "/>
    <polygon id="79" class="fil54" points="4068.24,6029.46 4063.91,6020.04 5858.08,5196.18 5862.41,5205.61 "/>
    <polygon id="80" class="fil55" points="4065.36,6023.18 4061.03,6013.75 5855.2,5189.9 5859.52,5199.32 "/>
    <polygon id="81" class="fil55" points="4062.47,6016.9 4058.14,6007.47 5852.31,5183.61 5856.64,5193.04 "/>
    <polygon id="82" class="fil56" points="4059.58,6010.61 4055.26,6001.18 5849.42,5177.33 5853.75,5186.75 "/>
    <polygon id="83" class="fil56" points="4056.7,6004.33 4052.37,5994.9 5846.54,5171.04 5850.87,5180.47 "/>
    <polygon id="84" class="fil57" points="4053.81,5998.04 4049.48,5988.61 5843.65,5164.76 5847.98,5174.18 "/>
    <polygon id="85" class="fil58" points="4050.93,5991.76 4046.6,5982.33 5840.77,5158.47 5845.1,5167.9 "/>
    <polygon id="86" class="fil59" points="4048.04,5985.47 4043.71,5976.05 5837.88,5152.19 5842.21,5161.62 "/>
    <polygon id="87" class="fil60" points="4045.16,5979.19 4040.83,5969.76 5835,5145.9 5839.32,5155.33 "/>
    <polygon id="88" class="fil60" points="4042.27,5972.9 4037.94,5963.48 5832.11,5139.62 5836.44,5149.05 "/>
    <polygon id="89" class="fil61" points="4039.38,5966.62 4035.06,5957.19 5829.22,5133.33 5833.55,5142.76 "/>
    <polygon id="90" class="fil62" points="4036.5,5960.33 4032.17,5950.91 5826.34,5127.05 5830.67,5136.48 "/>
    <polygon id="91" class="fil63" points="4033.61,5954.05 4029.28,5944.62 5823.45,5120.77 5827.78,5130.19 "/>
    <polygon id="92" class="fil63" points="4030.73,5947.77 4026.4,5938.34 5820.57,5114.48 5824.9,5123.91 "/>
    <polygon id="93" class="fil64" points="4027.84,5941.48 4023.51,5932.05 5817.68,5108.2 5822.01,5117.62 "/>
    <polygon id="94" class="fil64" points="4024.96,5935.2 4020.63,5925.77 5814.8,5101.91 5819.12,5111.34 "/>
    <polygon id="95" class="fil65" points="4022.07,5928.91 4017.74,5919.49 5811.91,5095.63 5816.24,5105.05 "/>
    <polygon id="96" class="fil65" points="4019.18,5922.63 4014.86,5913.2 5809.02,5089.34 5813.35,5098.77 "/>
    <polygon id="97" class="fil66" points="4016.3,5916.34 4011.97,5906.92 5806.14,5083.06 5810.47,5092.49 "/>
    <polygon id="98" class="fil67" points="4013.41,5910.06 4009.08,5900.63 5803.25,5076.77 5807.58,5086.2 "/>
    <polygon id="99" class="fil68" points="4010.53,5903.77 4006.2,5894.35 5800.37,5070.49 5804.7,5079.92 "/>
    <polygon id="100" class="fil69" points="4007.64,5897.49 4003.31,5888.06 5797.48,5064.21 5801.81,5073.63 "/>
    <polygon id="101" class="fil70" points="4004.76,5891.2 4000.43,5881.78 5794.6,5057.92 5798.92,5067.35 "/>
    <polygon id="102" class="fil70" points="4001.87,5884.92 3997.54,5875.49 5791.71,5051.64 5796.04,5061.06 "/>
    <polygon id="103" class="fil71" points="3998.98,5878.64 3994.65,5869.21 5788.82,5045.35 5793.15,5054.78 "/>
    <polygon id="104" class="fil72" points="3996.1,5872.35 3991.77,5862.92 5785.94,5039.07 5790.27,5048.49 "/>
    <polygon id="105" class="fil73" points="3993.21,5866.07 3988.88,5856.64 5783.05,5032.78 5787.38,5042.21 "/>
    <polygon id="106" class="fil74" points="3990.33,5859.78 3986,5850.36 5780.17,5026.5 5784.49,5035.92 "/>
    <polygon id="107" class="fil74" points="3987.44,5853.5 3983.11,5844.07 5777.28,5020.21 5781.61,5029.64 "/>
    <polygon id="108" class="fil75" points="3984.55,5847.21 3980.23,5837.79 5774.39,5013.93 5778.72,5023.36 "/>
    <polygon id="109" class="fil75" points="3981.67,5840.93 3977.34,5831.5 5771.51,5007.64 5775.84,5017.07 "/>
    <polygon id="110" class="fil76" points="3978.78,5834.64 3974.45,5825.22 5768.62,5001.36 5772.95,5010.79 "/>
    <polygon id="111" class="fil77" points="3975.9,5828.36 3971.57,5818.93 5765.74,4995.08 5770.07,5004.5 "/>
    <polygon id="112" class="fil78" points="3973.01,5822.07 3968.68,5812.65 5762.85,4988.79 5767.18,4998.22 "/>
    <polygon id="113" class="fil78" points="3970.13,5815.79 3965.8,5806.36 5759.97,4982.51 5764.29,4991.93 "/>
    <polygon id="114" class="fil79" points="3967.24,5809.51 3962.91,5800.08 5757.08,4976.22 5761.41,4985.65 "/>
    <polygon id="115" class="fil79" points="3964.35,5803.22 3960.03,5793.79 5754.19,4969.94 5758.52,4979.36 "/>
    <polygon id="116" class="fil80" points="3961.47,5796.94 3957.14,5787.51 5751.31,4963.65 5755.64,4973.08 "/>
    <polygon id="117" class="fil80" points="3958.58,5790.65 3954.25,5781.23 5748.42,4957.37 5752.75,4966.79 "/>
    <polygon id="118" class="fil81" points="3955.7,5784.37 3951.37,5774.94 5745.54,4951.08 5749.87,4960.51 "/>
    <polygon id="119" class="fil82" points="3952.81,5778.08 3948.48,5768.66 5742.65,4944.8 5746.98,4954.23 "/>
    <polygon id="120" class="fil83" points="3949.93,5771.8 3945.6,5762.37 5739.77,4938.51 5744.09,4947.94 "/>
    <polygon id="121" class="fil83" points="3947.04,5765.51 3942.71,5756.09 5736.88,4932.23 5741.21,4941.66 "/>
    <polygon id="122" class="fil84" points="3944.15,5759.23 3939.83,5749.8 5733.99,4925.95 5738.32,4935.37 "/>
    <polygon id="123" class="fil84" points="3941.27,5752.95 3936.94,5743.52 5731.11,4919.66 5735.44,4929.09 "/>
    <polygon id="124" class="fil85" points="3938.38,5746.66 3934.05,5737.23 5728.22,4913.38 5732.55,4922.8 "/>
    <polygon id="125" class="fil86" points="3935.5,5740.38 3931.17,5730.95 5725.34,4907.09 5729.67,4916.52 "/>
    <polygon id="126" class="fil85" points="3932.61,5734.09 3928.28,5724.66 5722.45,4900.81 5726.78,4910.23 "/>
    <polygon id="127" class="fil84" points="3929.73,5727.81 3925.4,5718.38 5719.57,4894.52 5723.89,4903.95 "/>
    <polygon id="128" class="fil84" points="3926.84,5721.52 3922.51,5712.1 5716.68,4888.24 5721.01,4897.67 "/>
    <polygon id="129" class="fil83" points="3923.95,5715.24 3919.62,5705.81 5713.79,4881.95 5718.12,4891.38 "/>
    <polygon id="130" class="fil83" points="3921.07,5708.95 3916.74,5699.53 5710.91,4875.67 5715.24,4885.1 "/>
    <polygon id="131" class="fil82" points="3918.18,5702.67 3913.85,5693.24 5708.02,4869.38 5712.35,4878.81 "/>
    <polygon id="132" class="fil81" points="3915.3,5696.38 3910.97,5686.96 5705.14,4863.1 5709.47,4872.53 "/>
    <polygon id="133" class="fil80" points="3912.41,5690.1 3908.08,5680.67 5702.25,4856.82 5706.58,4866.24 "/>
    <polygon id="134" class="fil80" points="3909.52,5683.82 3905.2,5674.39 5699.36,4850.53 5703.69,4859.96 "/>
    <polygon id="135" class="fil79" points="3906.64,5677.53 3902.31,5668.1 5696.48,4844.25 5700.81,4853.67 "/>
    <polygon id="136" class="fil79" points="3903.75,5671.25 3899.42,5661.82 5693.59,4837.96 5697.92,4847.39 "/>
    <polygon id="137" class="fil78" points="3900.87,5664.96 3896.54,5655.53 5690.71,4831.68 5695.04,4841.1 "/>
    <polygon id="138" class="fil78" points="3897.98,5658.68 3893.65,5649.25 5687.82,4825.39 5692.15,4834.82 "/>
    <polygon id="139" class="fil77" points="3895.1,5652.39 3890.77,5642.97 5684.94,4819.11 5689.26,4828.54 "/>
    <polygon id="140" class="fil76" points="3892.21,5646.11 3887.88,5636.68 5682.05,4812.82 5686.38,4822.25 "/>
    <polygon id="141" class="fil75" points="3889.32,5639.82 3885,5630.4 5679.16,4806.54 5683.49,4815.97 "/>
    <polygon id="142" class="fil75" points="3886.44,5633.54 3882.11,5624.11 5676.28,4800.25 5680.61,4809.68 "/>
    <polygon id="143" class="fil74" points="3883.55,5627.25 3879.22,5617.83 5673.39,4793.97 5677.72,4803.4 "/>
    <polygon id="144" class="fil74" points="3880.67,5620.97 3876.34,5611.54 5670.51,4787.69 5674.84,4797.11 "/>
    <polygon id="145" class="fil73" points="3877.78,5614.69 3873.45,5605.26 5667.62,4781.4 5671.95,4790.83 "/>
    <polygon id="146" class="fil72" points="3874.9,5608.4 3870.57,5598.97 5664.74,4775.12 5669.06,4784.54 "/>
    <polygon id="147" class="fil71" points="3872.01,5602.12 3867.68,5592.69 5661.85,4768.83 5666.18,4778.26 "/>
    <polygon id="148" class="fil70" points="3869.12,5595.83 3864.8,5586.41 5658.96,4762.55 5663.29,4771.97 "/>
    <polygon id="149" class="fil70" points="3866.24,5589.55 3861.91,5580.12 5656.08,4756.26 5660.41,4765.69 "/>
    <polygon id="150" class="fil69" points="3863.35,5583.26 3859.02,5573.84 5653.19,4749.98 5657.52,4759.41 "/>
    <polygon id="151" class="fil68" points="3860.47,5576.98 3856.14,5567.55 5650.31,4743.69 5654.64,4753.12 "/>
    <polygon id="152" class="fil67" points="3857.58,5570.69 3853.25,5561.27 5647.42,4737.41 5651.75,4746.84 "/>
    <polygon id="153" class="fil66" points="3854.7,5564.41 3850.37,5554.98 5644.54,4731.13 5648.86,4740.55 "/>
    <polygon id="154" class="fil65" points="3851.81,5558.12 3847.48,5548.7 5641.65,4724.84 5645.98,4734.27 "/>
    <polygon id="155" class="fil65" points="3848.92,5551.84 3844.6,5542.41 5638.76,4718.56 5643.09,4727.98 "/>
    <polygon id="156" class="fil64" points="3846.04,5545.56 3841.71,5536.13 5635.88,4712.27 5640.21,4721.7 "/>
    <polygon id="157" class="fil64" points="3843.15,5539.27 3838.82,5529.84 5632.99,4705.99 5637.32,4715.41 "/>
    <polygon id="158" class="fil63" points="3840.27,5532.99 3835.94,5523.56 5630.11,4699.7 5634.44,4709.13 "/>
    <polygon id="159" class="fil63" points="3837.38,5526.7 3833.05,5517.28 5627.22,4693.42 5631.55,4702.84 "/>
    <polygon id="160" class="fil62" points="3834.49,5520.42 3830.17,5510.99 5624.33,4687.13 5628.66,4696.56 "/>
    <polygon id="161" class="fil61" points="3831.61,5514.13 3827.28,5504.71 5621.45,4680.85 5625.78,4690.28 "/>
    <polygon id="162" class="fil60" points="3828.72,5507.85 3824.39,5498.42 5618.56,4674.56 5622.89,4683.99 "/>
    <polygon id="163" class="fil60" points="3825.84,5501.56 3821.51,5492.14 5615.68,4668.28 5620.01,4677.71 "/>
    <polygon id="164" class="fil59" points="3822.95,5495.28 3818.62,5485.85 5612.79,4662 5617.12,4671.42 "/>
    <polygon id="165" class="fil58" points="3820.07,5489 3815.74,5479.57 5609.91,4655.71 5614.23,4665.14 "/>
    <polygon id="166" class="fil57" points="3817.18,5482.71 3812.85,5473.28 5607.02,4649.43 5611.35,4658.85 "/>
    <polygon id="167" class="fil56" points="3814.29,5476.43 3809.97,5467 5604.13,4643.14 5608.46,4652.57 "/>
    <polygon id="168" class="fil56" points="3811.41,5470.14 3807.08,5460.71 5601.25,4636.86 5605.58,4646.28 "/>
    <polygon id="169" class="fil55" points="3808.52,5463.86 3804.19,5454.43 5598.36,4630.57 5602.69,4640 "/>
    <polygon id="170" class="fil55" points="3805.64,5457.57 3801.31,5448.15 5595.48,4624.29 5599.81,4633.72 "/>
    <polygon id="171" class="fil54" points="3802.75,5451.29 3798.42,5441.86 5592.59,4618 5596.92,4627.43 "/>
    <polygon id="172" class="fil53" points="3799.87,5445 3795.54,5435.58 5589.71,4611.72 5594.03,4621.15 "/>
    <polygon id="173" class="fil52" points="3796.98,5438.72 3792.65,5429.29 5586.82,4605.43 5591.15,4614.86 "/>
    <polygon id="174" class="fil51" points="3794.09,5432.43 3789.77,5423.01 5583.93,4599.15 5588.26,4608.58 "/>
    <polygon id="175" class="fil50" points="3791.21,5426.15 3786.88,5416.72 5581.05,4592.87 5585.38,4602.29 "/>
    <polygon id="176" class="fil50" points="3788.32,5419.87 3783.99,5410.44 5578.16,4586.58 5582.49,4596.01 "/>
    <polygon id="177" class="fil49" points="3785.44,5413.58 3781.11,5404.15 5575.28,4580.3 5579.61,4589.72 "/>
    <polygon id="178" class="fil49" points="3782.55,5407.3 3778.22,5397.87 5572.39,4574.01 5576.72,4583.44 "/>
    <polygon id="179" class="fil48" points="3779.67,5401.01 3775.34,5391.58 5569.51,4567.73 5573.83,4577.15 "/>
    <polygon id="180" class="fil47" points="3776.78,5394.73 3772.45,5385.3 5566.62,4561.44 5570.95,4570.87 "/>
    <polygon id="181" class="fil46" points="3773.89,5388.44 3769.57,5379.02 5563.73,4555.16 5568.06,4564.59 "/>
    <polygon id="182" class="fil45" points="3771.01,5382.16 3766.68,5372.73 5560.85,4548.87 5565.18,4558.3 "/>
    <polygon id="183" class="fil45" points="3768.12,5375.87 3763.79,5366.45 5557.96,4542.59 5562.29,4552.02 "/>
    <polygon id="184" class="fil44" points="3765.24,5369.59 3760.91,5360.16 5555.08,4536.3 5559.41,4545.73 "/>
    <polygon id="185" class="fil43" points="3762.35,5363.3 3758.02,5353.88 5552.19,4530.02 5556.52,4539.45 "/>
    <polygon id="186" class="fil42" points="3759.46,5357.02 3755.14,5347.59 5549.3,4523.74 5553.63,4533.16 "/>
    <polygon id="187" class="fil42" points="3756.58,5350.74 3752.25,5341.31 5546.42,4517.45 5550.75,4526.88 "/>
    <polygon id="188" class="fil41" points="3753.69,5344.45 3749.36,5335.02 5543.53,4511.17 5547.86,4520.59 "/>
    <polygon id="189" class="fil41" points="3750.81,5338.17 3746.48,5328.74 5540.65,4504.88 5544.98,4514.31 "/>
    <polygon id="190" class="fil40" points="3747.92,5331.88 3743.59,5322.46 5537.76,4498.6 5542.09,4508.02 "/>
    <polygon id="191" class="fil39" points="3745.04,5325.6 3740.71,5316.17 5534.88,4492.31 5539.2,4501.74 "/>
    <polygon id="192" class="fil38" points="3742.15,5319.31 3737.82,5309.89 5531.99,4486.03 5536.32,4495.46 "/>
    <polygon id="193" class="fil37" points="3739.26,5313.03 3734.94,5303.6 5529.1,4479.74 5533.43,4489.17 "/>
    <polygon id="194" class="fil36" points="3736.38,5306.74 3732.05,5297.32 5526.22,4473.46 5530.55,4482.89 "/>
    <polygon id="195" class="fil35" points="3733.49,5300.46 3729.16,5291.03 5523.33,4467.18 5527.66,4476.6 "/>
    <polygon id="196" class="fil34" points="3730.61,5294.17 3726.28,5284.75 5520.45,4460.89 5524.78,4470.32 "/>
    <polygon id="197" class="fil34" points="3727.72,5287.89 3723.39,5278.46 5517.56,4454.61 5521.89,4464.03 "/>
    <polygon id="198" class="fil33" points="3724.84,5281.61 3720.51,5272.18 5514.68,4448.32 5519,4457.75 "/>
    <polygon id="199" class="fil33" points="3721.95,5275.32 3717.62,5265.89 5511.79,4442.04 5516.12,4451.46 "/>
    <polygon id="200" class="fil32" points="3719.06,5269.04 3714.74,5259.61 5508.9,4435.75 5513.23,4445.18 "/>
    <polygon id="201" class="fil31" points="3716.18,5262.75 3711.85,5253.33 5506.02,4429.47 5510.35,4438.89 "/>
    <polygon id="202" class="fil31" points="3713.29,5256.47 3708.96,5247.04 5503.13,4423.18 5507.46,4432.61 "/>
    <polygon id="203" class="fil30" points="3710.41,5250.18 3706.08,5240.76 5500.25,4416.9 5504.58,4426.33 "/>
    <polygon id="204" class="fil30" points="3707.52,5243.9 3703.19,5234.47 5497.36,4410.61 5501.69,4420.04 "/>
    <polygon id="205" class="fil29" points="3704.64,5237.61 3700.31,5228.19 5494.48,4404.33 5498.8,4413.76 "/>
    <polygon id="206" class="fil28" points="3701.75,5231.33 3697.42,5221.9 5491.59,4398.05 5495.92,4407.47 "/>
    <polygon id="207" class="fil27" points="3698.86,5225.04 3694.54,5215.62 5488.7,4391.76 5493.03,4401.19 "/>
    <polygon id="208" class="fil27" points="3695.98,5218.76 3691.65,5209.33 5485.82,4385.48 5490.15,4394.9 "/>
    <polygon id="209" class="fil26" points="3693.09,5212.48 3688.76,5203.05 5482.93,4379.19 5487.26,4388.62 "/>
    <polygon id="210" class="fil26" points="3690.21,5206.19 3685.88,5196.76 5480.05,4372.91 5484.38,4382.33 "/>
    <polygon id="211" class="fil25" points="3687.32,5199.91 3682.99,5190.48 5477.16,4366.62 5481.49,4376.05 "/>
    <polygon id="212" class="fil25" points="3684.43,5193.62 3680.11,5184.2 5474.28,4360.34 5478.6,4369.76 "/>
    <polygon id="213" class="fil24" points="3681.55,5187.34 3677.22,5177.91 5471.39,4354.05 5475.72,4363.48 "/>
    <polygon id="214" class="fil23" points="3678.66,5181.05 3674.33,5171.63 5468.5,4347.77 5472.83,4357.2 "/>
    <polygon id="215" class="fil22" points="3675.78,5174.77 3671.45,5165.34 5465.62,4341.48 5469.95,4350.91 "/>
    <polygon id="216" class="fil22" points="3672.89,5168.48 3668.56,5159.06 5462.73,4335.2 5467.06,4344.63 "/>
    <polygon id="217" class="fil21" points="3670.01,5162.2 3665.68,5152.77 5459.85,4328.92 5464.17,4338.34 "/>
    <polygon id="218" class="fil21" points="3667.12,5155.92 3662.79,5146.49 5456.96,4322.63 5461.29,4332.06 "/>
    <polygon id="219" class="fil20" points="3664.23,5149.63 3659.91,5140.2 5454.07,4316.35 5458.4,4325.77 "/>
    <polygon id="220" class="fil20" points="3661.35,5143.35 3657.02,5133.92 5451.19,4310.06 5455.52,4319.49 "/>
    <polygon id="221" class="fil20" points="3658.46,5137.06 3654.13,5127.63 5448.3,4303.78 5452.63,4313.2 "/>
    <polygon id="222" class="fil19" points="3655.58,5130.78 3651.25,5121.35 5445.42,4297.49 5449.75,4306.92 "/>
    <polygon id="223" class="fil19" points="3652.69,5124.49 3648.36,5115.07 5442.53,4291.21 5446.86,4300.64 "/>
    <polygon id="224" class="fil18" points="3649.81,5118.21 3645.48,5108.78 5439.65,4284.92 5443.97,4294.35 "/>
    <polygon id="225" class="fil18" points="3646.92,5111.92 3642.59,5102.5 5436.76,4278.64 5441.09,4288.07 "/>
    <polygon id="226" class="fil17" points="3644.03,5105.64 3639.71,5096.21 5433.87,4272.35 5438.2,4281.78 "/>
    <polygon id="227" class="fil16" points="3641.15,5099.35 3636.82,5089.93 5430.99,4266.07 5435.32,4275.5 "/>
    <polygon id="228" class="fil15" points="3638.26,5093.07 3633.93,5083.64 5428.1,4259.79 5432.43,4269.21 "/>
    <polygon id="229" class="fil15" points="3635.38,5086.79 3631.05,5077.36 5425.22,4253.5 5429.55,4262.93 "/>
    <polygon id="230" class="fil14" points="3632.49,5080.5 3628.16,5071.07 5422.33,4247.22 5426.66,4256.64 "/>
    <polygon id="231" class="fil14" points="3629.61,5074.22 3625.28,5064.79 5419.45,4240.93 5423.77,4250.36 "/>
    <polygon id="232" class="fil13" points="3626.72,5067.93 3622.39,5058.51 5416.56,4234.65 5420.89,4244.07 "/>
    <polygon id="233" class="fil13" points="3623.83,5061.65 3619.51,5052.22 5413.67,4228.36 5418,4237.79 "/>
    <polygon id="234" class="fil12" points="3620.95,5055.36 3616.62,5045.94 5410.79,4222.08 5415.12,4231.51 "/>
    <polygon id="235" class="fil11" points="3618.06,5049.08 3613.73,5039.65 5407.9,4215.79 5412.23,4225.22 "/>
    <polygon id="236" class="fil10" points="3615.18,5042.79 3610.85,5033.37 5405.02,4209.51 5409.35,4218.94 "/>
    <polygon id="237" class="fil10" points="3612.29,5036.51 3607.96,5027.08 5402.13,4203.23 5406.46,4212.65 "/>
    <polygon id="238" class="fil9" points="3609.41,5030.22 3605.08,5020.8 5399.25,4196.94 5403.57,4206.37 "/>
    <polygon id="239" class="fil9" points="3606.52,5023.94 3602.19,5014.51 5396.36,4190.66 5400.69,4200.08 "/>
    <polygon id="240" class="fil8" points="3603.63,5017.66 3599.3,5008.23 5393.47,4184.37 5397.8,4193.8 "/>
    <polygon id="241" class="fil7" points="3600.75,5011.37 3596.42,5001.94 5390.59,4178.09 5394.92,4187.51 "/>
    <polygon id="242" class="fil7" points="3597.86,5005.09 3593.53,4995.66 5387.7,4171.8 5392.03,4181.23 "/>
    <polygon id="243" class="fil6" points="3594.98,4998.8 3590.65,4989.38 5384.82,4165.52 5389.14,4174.94 "/>
    <polygon id="244" class="fil6" points="3592.09,4992.52 3587.76,4983.09 5381.93,4159.23 5386.26,4168.66 "/>
    <polygon id="245" class="fil5" points="3589.2,4986.23 3584.88,4976.81 5379.04,4152.95 5383.37,4162.38 "/>
    <polygon id="246" class="fil4" points="3586.32,4979.95 3581.99,4970.52 5376.16,4146.66 5380.49,4156.09 "/>
    <polygon id="247" class="fil3" points="3583.43,4973.66 3579.1,4964.24 5373.27,4140.38 5377.6,4149.81 "/>
    <polygon id="248" class="fil2" points="3580.55,4967.38 3576.22,4957.95 5370.39,4134.1 5374.72,4143.52 "/>
    <polygon id="249" class="fil1" points="3577.66,4961.09 3573.33,4951.67 5367.5,4127.81 5371.83,4137.24 "/>
    <polygon id="250" class="fil1" points="3574.78,4954.81 3570.45,4945.38 5364.62,4121.53 5368.94,4130.95 "/>
    <polygon id="251" class="fil87" points="3571.89,4948.53 3567.56,4939.1 5361.73,4115.24 5366.06,4124.67 "/>
    <polygon id="252" class="fil87" points="3569,4942.24 3564.68,4932.81 5358.84,4108.96 5363.17,4118.38 "/>
    <polygon id="253" class="fil88" points="3566.12,4935.96 3561.79,4926.53 5355.96,4102.67 5360.29,4112.1 "/>
    <polygon id="254" class="fil89" points="3563.23,4929.67 3558.9,4920.25 5353.07,4096.39 5357.4,4105.81 "/>
    <polygon id="255" class="fil90" points="3560.35,4923.39 3556.02,4913.96 5350.19,4090.1 5354.52,4099.53 "/>
    <polygon id="256" class="fil91" points="3557.46,4917.1 3553.13,4907.68 5347.3,4083.82 5351.63,4093.25 "/>
    <polygon id="257" class="fil92" points="3554.58,4910.82 3550.25,4901.39 5344.42,4077.53 5348.74,4086.96 "/>
    <polygon id="258" class="fil92" points="3551.69,4904.53 3547.36,4895.11 5341.53,4071.25 5345.86,4080.68 "/>
    <polygon id="259" class="fil93" points="3548.8,4898.25 3544.48,4888.82 5338.64,4064.97 5342.97,4074.39 "/>
    <polygon id="260" class="fil94" points="3545.92,4891.97 3541.59,4882.54 5335.76,4058.68 5340.09,4068.11 "/>
    <polygon id="261" class="fil95" points="3543.03,4885.68 3538.7,4876.25 5332.87,4052.4 5337.2,4061.82 "/>
    <polygon id="262" class="fil96" points="3540.15,4879.4 3535.82,4869.97 5329.99,4046.11 5334.32,4055.54 "/>
    <polygon id="263" class="fil96" points="3537.26,4873.11 3532.93,4863.68 5327.1,4039.83 5331.43,4049.25 "/>
    <polygon id="264" class="fil97" points="3534.38,4866.83 3530.05,4857.4 5324.22,4033.54 5328.54,4042.97 "/>
    <polygon id="265" class="fil97" points="3531.49,4860.54 3527.16,4851.12 5321.33,4027.26 5325.66,4036.69 "/>
    <polygon id="266" class="fil98" points="3528.6,4854.26 3524.27,4844.83 5318.44,4020.97 5322.77,4030.4 "/>
    <polygon id="267" class="fil99" points="3525.72,4847.97 3521.39,4838.55 5315.56,4014.69 5319.89,4024.12 "/>
    <polygon id="268" class="fil100" points="3522.83,4841.69 3518.5,4832.26 5312.67,4008.4 5317,4017.83 "/>
    <polygon id="269" class="fil101" points="3519.95,4835.4 3515.62,4825.98 5309.79,4002.12 5314.11,4011.55 "/>
    <polygon id="270" class="fil102" points="3517.06,4829.12 3512.73,4819.69 5306.9,3995.84 5311.23,4005.26 "/>
    <polygon id="271" class="fil102" points="3514.17,4822.84 3509.85,4813.41 5304.01,3989.55 5308.34,3998.98 "/>
    <polygon id="272" class="fil103" points="3511.29,4816.55 3506.96,4807.12 5301.13,3983.27 5305.46,3992.69 "/>
    <polygon id="273" class="fil103" points="3508.4,4810.27 3504.07,4800.84 5298.24,3976.98 5302.57,3986.41 "/>
    <polygon id="274" class="fil104" points="3505.52,4803.98 3501.19,4794.55 5295.36,3970.7 5299.69,3980.12 "/>
    <polygon id="275" class="fil105" points="3502.63,4797.7 3498.3,4788.27 5292.47,3964.41 5296.8,3973.84 "/>
    <polygon id="276" class="fil106" points="3499.75,4791.41 3495.42,4781.99 5289.59,3958.13 5293.91,3967.56 "/>
    <polygon id="277" class="fil107" points="3496.86,4785.13 3492.53,4775.7 5286.7,3951.84 5291.03,3961.27 "/>
    <polygon id="278" class="fil108" points="3493.97,4778.84 3489.65,4769.42 5283.81,3945.56 5288.14,3954.99 "/>
    <polygon id="279" class="fil109" points="3491.09,4772.56 3486.76,4763.13 5280.93,3939.27 5285.26,3948.7 "/>
    <polygon id="280" class="fil110" points="3488.2,4766.27 3483.87,4756.85 5278.04,3932.99 5282.37,3942.42 "/>
    <polygon id="281" class="fil111" points="3485.32,4759.99 3480.99,4750.56 5275.16,3926.71 5279.49,3936.13 "/>
    <polygon id="282" class="fil111" points="3482.43,4753.71 3478.1,4744.28 5272.27,3920.42 5276.6,3929.85 "/>
    <polygon id="283" class="fil112" points="3479.55,4747.42 3475.22,4737.99 5269.39,3914.14 5273.71,3923.56 "/>
    <polygon id="284" class="fil112" points="3476.66,4741.14 3472.33,4731.71 5266.5,3907.85 5270.83,3917.28 "/>
    <polygon id="285" class="fil113" points="3473.77,4734.85 3469.45,4725.43 5263.61,3901.57 5267.94,3910.99 "/>
    <polygon id="286" class="fil113" points="3470.89,4728.57 3466.56,4719.14 5260.73,3895.28 5265.06,3904.71 "/>
    <polygon id="287" class="fil114" points="3468,4722.28 3463.67,4712.86 5257.84,3889 5262.17,3898.43 "/>
    <polygon id="288" class="fil115" points="3465.12,4716 3460.79,4706.57 5254.96,3882.71 5259.29,3892.14 "/>
    <polygon id="289" class="fil116" points="3462.23,4709.71 3457.9,4700.29 5252.07,3876.43 5256.4,3885.86 "/>
    <polygon id="290" class="fil117" points="3459.35,4703.43 3455.02,4694 5249.19,3870.15 5253.51,3879.57 "/>
    <polygon id="291" class="fil118" points="3456.46,4697.14 3452.13,4687.72 5246.3,3863.86 5250.63,3873.29 "/>
    <polygon id="292" class="fil118" points="3453.57,4690.86 3454.71,4693.33 5248.88,3869.47 5247.74,3867 "/>
   </g>
  </g>
  <path class="fil119" d="M2258.17 5271.88l110.51 -99.31c248.67,-534.95 649.11,-1050.07 1250.45,-1538.87 400.48,-325.51 1705.69,1998.2 1633.92,2061.55 -1062.92,254.84 -2054.6,73.11 -2994.88,-423.37z"/>
  <path class="fil120" d="M5591.31 5461.16l1479.3 1667.65c360.46,406.35 -303.59,961.01 -643.57,577.73l-1479.29 -1667.66c-200.07,-225.53 428.02,-820.7 643.56,-577.72z"/>
  <path class="fil121" d="M4191.81 1632.9c1369.29,0 2479.31,1110.02 2479.31,2479.31 0,1369.29 -1110.02,2479.31 -2479.31,2479.31 -1369.29,0 -2479.31,-1110.02 -2479.31,-2479.31 0,-1369.29 1110.02,-2479.31 2479.31,-2479.31zm0 926.34c857.69,0 1552.97,695.28 1552.97,1552.97 0,857.69 -695.28,1552.97 -1552.97,1552.97 -857.69,0 -1552.97,-695.28 -1552.97,-1552.97 0,-857.69 695.28,-1552.97 1552.97,-1552.97z"/>
  <path class="fil122" d="M5169.81 5266.6c-530.1,-335.38 -919.32,-560.32 -1557.95,-150.9 -78.91,50.58 -254.7,185.36 -284.41,255.76 987.73,-190.82 1117.67,635.8 1779.25,981.24l131.53 61.98c1.61,0.77 3.86,1.84 5.47,2.61 1.6,0.77 3.87,1.82 5.48,2.58 143.91,69.13 429.48,117.25 587.26,104.11 219.89,-18.33 403.98,-52.84 603.64,-153.59 960.03,-484.41 1079.6,-1643.78 378.19,-2388.64 -84.72,-89.99 -227.07,-187 -339.22,-246.71l-58.82 -30.38c-41.12,33.09 -248.85,264.48 -262.9,335.32 351.68,-148.97 -26.91,1834.39 -987.52,1226.62z"/>
  <path class="fil122" d="M5929.84 4482.6c0.59,40.41 -17.44,66.46 -35.04,105.91 -12.11,27.13 -9.6,22.43 -30.55,54.32 -99.87,152.03 -229.73,120.48 -371.5,137.41 -68.93,8.23 -118.98,-17.15 -160.27,-101.6 -103.93,-212.57 37.96,-362.84 215.27,-277.84 76.52,32.75 75.39,40.55 170.22,62.25l211.87 19.55z"/>
  <path class="fil122" d="M5321.9 3170.48l-141.29 136.84 -169.29 177.8c399.06,134.98 605.11,340.65 1047.97,735.26 282.46,-255.86 620.5,-615.37 1039.44,-730.13 -72.3,-119.3 -177.58,-213.13 -300.95,-292.99 -16.3,-221.89 -69.85,-420.56 -152.4,-601.14 -158.33,116.81 -282.77,240.93 -372.53,372.54 -150.76,-29.6 -290.59,-23.87 -421.33,11.11 -88.26,-145.34 -221.14,-264.4 -372.53,-372.54 -103.94,176 -154.26,364.23 -157.09,563.25z"/>
  <path class="fil123" d="M5230.02 3259.46l-49.41 47.86 -169.29 177.8c399.06,134.98 605.11,340.65 1047.97,735.26 144.3,-369.81 396.19,-698.4 832.98,-956.08 82.64,64.64 153.43,138.44 206.46,225.95 -418.94,114.76 -756.98,474.27 -1039.44,730.13 -308.84,-451.66 -587.12,-779.41 -829.27,-960.92z"/>
  <path class="fil86" d="M5772.08 2860.04c-156.05,22.39 -316.12,235.3 -450.18,310.44 -5.76,-144.37 51.7,-445.45 158.56,-568.9 86.86,68.8 182.3,149.12 291.62,258.46z"/>
  <path class="fil86" d="M6809.04 3204.63c-149.95,-48.7 -318.91,-329.57 -472.36,-321.21 79.78,-116.83 182.62,-206.2 308.7,-287.3 76.77,96.47 142.03,459.66 163.66,608.51z"/>
  <circle class="fil124" cx="4523.4" cy="3466.93" r="237.07"/>
 </g>
</svg>
