<?xml version="1.0" encoding="UTF-8" standalone="no"?>
<!DOCTYPE svg PUBLIC "-//W3C//DTD SVG 1.1//EN" "http://www.w3.org/Graphics/SVG/1.1/DTD/svg11.dtd">
<svg width="100%" height="100%" viewBox="0 0 32 32" version="1.1" xmlns="http://www.w3.org/2000/svg" xmlns:xlink="http://www.w3.org/1999/xlink" xml:space="preserve" xmlns:serif="http://www.serif.com/" style="fill-rule:evenodd;clip-rule:evenodd;stroke-linecap:round;stroke-linejoin:round;stroke-miterlimit:1.5;">
    <g transform="matrix(1,0,0,1,-74,-7.10543e-15)">
        <g id="object-rotate-right" transform="matrix(1,0,0,1,74,7.10543e-15)">
            <rect x="0" y="0" width="32" height="32" style="fill:none;"/>
            <g transform="matrix(1,0,0,1,-1,-0.275147)">
                <g transform="matrix(1,0,0,1,-74,-7.10543e-15)">
                    <path d="M100,18C100,22.967 95.967,27 91,27C86.033,27 82,22.967 82,18C82,13.033 86.033,9 91,9" style="fill:none;stroke:white;stroke-width:2px;"/>
                </g>
                <g transform="matrix(0.984136,-0.177418,0.177418,0.984136,-74.2676,16.4198)">
                    <path d="M89,13L93,9L89,5" style="fill:none;stroke:white;stroke-width:2px;"/>
                </g>
            </g>
        </g>
    </g>
</svg>
