<?xml version="1.0" encoding="UTF-8" standalone="no"?>
<!DOCTYPE svg PUBLIC "-//W3C//DTD SVG 1.1//EN" "http://www.w3.org/Graphics/SVG/1.1/DTD/svg11.dtd">
<svg width="100%" height="100%" viewBox="0 0 32 32" version="1.1" xmlns="http://www.w3.org/2000/svg" xmlns:xlink="http://www.w3.org/1999/xlink" xml:space="preserve" xmlns:serif="http://www.serif.com/" style="fill-rule:evenodd;clip-rule:evenodd;stroke-linecap:round;stroke-linejoin:round;stroke-miterlimit:1.5;">
    <g transform="matrix(1,0,0,1,-37,-37)">
        <g id="view-fullscreen" transform="matrix(1,0,0,1,37,37)">
            <rect x="0" y="0" width="32" height="32" style="fill:none;"/>
            <g transform="matrix(1,0,0,1,-36,-37)">
                <path d="M42,49L42,43L48,43" style="fill:none;stroke:white;stroke-width:2px;"/>
            </g>
            <g transform="matrix(-1,1.22465e-16,1.22465e-16,1,68,-37)">
                <path d="M42,49L42,43L48,43" style="fill:none;stroke:white;stroke-width:2px;"/>
            </g>
            <g transform="matrix(1,-2.46519e-32,-2.46519e-32,-1,-36,69)">
                <path d="M42,49L42,43L48,43" style="fill:none;stroke:white;stroke-width:2px;"/>
            </g>
            <g transform="matrix(1.11111,0,0,1.14286,-42.3333,-42.8571)">
                <rect x="48" y="48" width="9" height="7" style="fill:none;stroke:white;stroke-width:1.77px;"/>
            </g>
            <g transform="matrix(-1,-1.22465e-16,1.22465e-16,-1,68,69)">
                <path d="M42,49L42,43L48,43" style="fill:none;stroke:white;stroke-width:2px;"/>
            </g>
        </g>
    </g>
</svg>
