<?xml version="1.0" encoding="UTF-8" standalone="no"?>
<!DOCTYPE svg PUBLIC "-//W3C//DTD SVG 1.1//EN" "http://www.w3.org/Graphics/SVG/1.1/DTD/svg11.dtd">
<svg width="100%" height="100%" viewBox="0 0 32 32" version="1.1" xmlns="http://www.w3.org/2000/svg" xmlns:xlink="http://www.w3.org/1999/xlink" xml:space="preserve" xmlns:serif="http://www.serif.com/" style="fill-rule:evenodd;clip-rule:evenodd;stroke-linecap:round;stroke-linejoin:round;stroke-miterlimit:1.5;">
    <g transform="matrix(1,0,0,1,0,-37)">
        <g id="view-background-checkerboard" transform="matrix(1,0,0,1,0,37)">
            <rect x="0" y="0" width="32" height="32" style="fill:none;"/>
            <g id="rect814" transform="matrix(0.964431,0,0,0.907545,0.187581,-988.266)">
                <rect x="6.027" y="1095.56" width="10.369" height="11.019" style="fill:white;fill-opacity:0.87;"/>
            </g>
            <g id="rect814-4" transform="matrix(0.984615,0,0,0.898704,-0.143354,-978.502)">
                <rect x="16.396" y="1106.6" width="10.156" height="11.127" style="fill:white;fill-opacity:0.87;"/>
            </g>
            <g id="rect814-2" transform="matrix(0.963684,0,0,0.898697,0.199828,-978.495)">
                <rect x="6.019" y="1106.6" width="10.377" height="11.127" style="fill:white;fill-opacity:0.07;"/>
            </g>
            <g id="rect814-2-6" transform="matrix(0.980558,0,0,0.898693,-0.0768322,-978.47)">
                <rect x="16.396" y="1095.45" width="10.198" height="11.127" style="fill:white;fill-opacity:0.07;"/>
            </g>
            <g transform="matrix(1,0,0,0.952381,-74,-34)">
                <rect x="80" y="42" width="20" height="21" style="fill:none;stroke:white;stroke-width:2.05px;"/>
            </g>
        </g>
    </g>
</svg>
