<?xml version="1.0" encoding="UTF-8" standalone="no"?>
<!DOCTYPE svg PUBLIC "-//W3C//DTD SVG 1.1//EN" "http://www.w3.org/Graphics/SVG/1.1/DTD/svg11.dtd">
<svg width="100%" height="100%" viewBox="0 0 32 32" version="1.1" xmlns="http://www.w3.org/2000/svg" xmlns:xlink="http://www.w3.org/1999/xlink" xml:space="preserve" xmlns:serif="http://www.serif.com/" style="fill-rule:evenodd;clip-rule:evenodd;stroke-linecap:square;stroke-miterlimit:1.5;">
    <g transform="matrix(1,0,0,1,-74,-37)">
        <g id="zoom-original" transform="matrix(1,0,0,1,74,37)">
            <rect x="0" y="0" width="32" height="32" style="fill:none;"/>
            <g transform="matrix(1,0,0,1,-73,-37)">
                <path d="M85,57L85,49L84,49" style="fill:none;stroke:white;stroke-width:2px;"/>
            </g>
            <g transform="matrix(1,0,0,1,-74,-37)">
                <rect x="89" y="50" width="2" height="2" style="fill:white;"/>
            </g>
            <g transform="matrix(1,0,0,1,-74,-33)">
                <rect x="89" y="50" width="2" height="2" style="fill:white;"/>
            </g>
            <g transform="matrix(1,0,0,1,-64,-37)">
                <path d="M85,57L85,49L84,49" style="fill:none;stroke:white;stroke-width:2px;"/>
            </g>
            <g transform="matrix(1,0,0,0.952381,-74,-34)">
                <rect x="80" y="42" width="20" height="21" style="fill:none;stroke:white;stroke-width:2.05px;stroke-linecap:round;stroke-linejoin:round;"/>
            </g>
        </g>
    </g>
</svg>
